<svg id="Calque_1" data-name="Calque 1" xmlns="http://www.w3.org/2000/svg" viewBox="0 0 1024 1024"><defs><style>.cls-1{fill:#001022;}</style></defs><title>user-L</title><path class="cls-1" d="M512.79,583.91a230.44,230.44,0,1,0-163-67.49A229,229,0,0,0,512.79,583.91Zm0-432.91c111.63,0,202.45,90.82,202.45,202.46S624.42,555.91,512.79,555.91,310.33,465.09,310.33,353.46,401.15,151,512.79,151Z"/><path class="cls-1" d="M926.6,849.16a180.07,180.07,0,0,0-180.07-179.4H276.76A180.07,180.07,0,0,0,96.68,849.15v37.61h28V849.27A152.09,152.09,0,0,1,276.76,697.76H746.53A152.05,152.05,0,0,1,898.6,849.24V870h28v-20.8Z"/></svg>